<svg xmlns="http://www.w3.org/2000/svg" width="20" height="17" viewBox="0 0 20 17">
    <path fill="none" fill-rule="evenodd" stroke="#FFF" stroke-linecap="round" stroke-linejoin="round" d="M20 3.595l-1.727-.432.863-1.727-2.128.604A3.87 3.87 0 0 0 10.5 4.89v.864c-3.056.63-5.73-1.037-8.205-3.887-.431 2.303 0 4.03 1.296 5.182L1 6.617c.35 1.787 1.176 3.196 3.455 3.455l-2.16.864c.864 1.727 2.217 1.995 4.319 2.159A9.282 9.282 0 0 1 1 14.822c11.016 4.896 17.273-2.3 17.273-8.636V5.039L20 3.595z"/>
</svg>
